<svg id="Layer_1" data-name="Layer 1" xmlns="http://www.w3.org/2000/svg" viewBox="0 0 551.3 80"><defs><style>.cls-1{fill:#007dc5;}.cls-2{fill:#00a4e0;}.cls-3{fill:#707071;}</style></defs><path class="cls-1" d="M113.21,35.81a10,10,0,0,1-7.13,2.73,12,12,0,0,1-9-4,18.35,18.35,0,0,1-3.89-6.39c-1.66-4.4-1.39-12.28.14-16.72A19.2,19.2,0,0,1,95.7,6.49,12.43,12.43,0,0,1,99,3.24a8.71,8.71,0,0,1,4.86-1.48,5.39,5.39,0,0,1,3.38,1A4.49,4.49,0,0,1,108.39,4a15,15,0,0,1,1,2.69c.93,2.82,2.37,4.26,4.31,4.26A3,3,0,0,0,116,10a3.22,3.22,0,0,0,.93-2.41,5.06,5.06,0,0,0-2.23-3.94C112.24,1.71,108.86.74,104.5.74a22.49,22.49,0,0,0-8.71,1.67,17.84,17.84,0,0,0-5.28,3.2H68.93V27.89c.14,12.64-12.51,16.58-12.51,16.58-12,5.84-1.76,6.53-1.76,6.53,21.77.84,30.94-7.92,34.79-15.52,3.38,3.25,8,4.87,13.71,4.87,3.75,0,6.72-.7,8.89-2.13a12.45,12.45,0,0,0,4.82-6.86L116,31a14.66,14.66,0,0,1-2.78,4.77" transform="translate(-1.25)"/><path class="cls-2" d="M69.11,54V76.43h23V42.94C83.66,53.73,69.11,54,69.11,54" transform="translate(-1.25)"/><path class="cls-2" d="M44.79,28.12V5.7h-23V39.19c8.43-10.79,23-11.07,23-11.07" transform="translate(-1.25)"/><path class="cls-1" d="M20.43,70.23h0a7.92,7.92,0,0,1-2.74,3.38,6.57,6.57,0,0,1-3.84,1.25A5,5,0,0,1,10,73.1a6.74,6.74,0,0,1-1.53-4.54A8.69,8.69,0,0,1,10.42,63a11.1,11.1,0,0,1,2.13-2,44.54,44.54,0,0,1,4.17-2.45A27.58,27.58,0,0,0,21.4,55.4c-.09.93-.09,1.48-.09,1.48L21.45,66a13.93,13.93,0,0,1-1,4.27M58.92,31C40.11,30.3,30.71,36.73,26,43.4a8.61,8.61,0,0,0-1.76-1.29,18.79,18.79,0,0,0-4.68-1.72,22.21,22.21,0,0,0-5.37-.64,22.84,22.84,0,0,0-4.68.46,22.14,22.14,0,0,0-4,1.2c-2,1-3,2.18-3,3.57a3.2,3.2,0,0,0,1,2.36,3.39,3.39,0,0,0,2.36.93,3,3,0,0,0,3-2l1-2.41a5.74,5.74,0,0,1,2-2.4,5.16,5.16,0,0,1,3-.88,6.3,6.3,0,0,1,2.73.6,5.73,5.73,0,0,1,2.13,1.67q1.82,2.22,1.81,7.08A10.32,10.32,0,0,1,21,53.55a4.64,4.64,0,0,1-1.81,2.22,10.31,10.31,0,0,1-2.87,1.49c-1.16.41-2.92.92-5.33,1.52a25.76,25.76,0,0,0-4.68,1.58,10.5,10.5,0,0,0-2.87,2,8,8,0,0,0-2.22,5.79,7.23,7.23,0,0,0,2.69,5.93,11.07,11.07,0,0,0,7.27,2.22,13.23,13.23,0,0,0,6.3-1.48,26.48,26.48,0,0,0,4-3.15l0,4.54,6.81,0c.28,0,.56,0,.88,0a3.45,3.45,0,0,0,.74,0l14.69,0-.09-22.14c-.14-12.65,12.5-16.59,12.5-16.59C69.11,31.73,58.92,31,58.92,31Z" transform="translate(-1.25)"/><path class="cls-2" d="M192.47,25.89h-12.6l6.25-15.84Zm-13.62,2.92h14.73l3.66,8.9h3.85L188,6.11H184.6l-13.21,31.6h3.8Z" transform="translate(-1.25)"/><path class="cls-2" d="M205,37.66h3.11V17.23h5v-2.5h-5V13.16c0-5,3.38-5,5-5.1V5.56c-2.45,0-8.06.23-8.06,7.32v1.9h-3.38v2.5H205V37.66Z" transform="translate(-1.25)"/><path class="cls-2" d="M216.42,37.66h3.1V25.15c0-5.18,2.46-8,6.9-8h.28V14.08c-2.68.09-5.69,1-7.36,4.4V14.73h-3V37.66Z" transform="translate(-1.25)"/><path class="cls-2" d="M230.18,37.66h3.15v-23h-3.15Zm0-27.19h3.15V6.07h-3.15Z" transform="translate(-1.25)"/><path class="cls-2" d="M258.57,29.92a8.66,8.66,0,0,1-8.33,5.47,8.91,8.91,0,0,1-9-9.17,9.49,9.49,0,0,1,2.6-6.63A8.63,8.63,0,0,1,250.28,17a8.86,8.86,0,0,1,8.34,5.7h3.24A12.19,12.19,0,0,0,238,26.22a12.2,12.2,0,0,0,23.81,3.7Z" transform="translate(-1.25)"/><path class="cls-2" d="M268.12,26.17A9,9,0,0,1,277.24,17a8.9,8.9,0,0,1,8.43,5.52,8.17,8.17,0,0,1,.74,3.66,8.71,8.71,0,0,1-.78,3.61,8.62,8.62,0,0,1-8.3,5.6,8.9,8.9,0,0,1-9.21-9.17Zm21.3-11.49h-3.15V19.5c-1.11-2.59-4.49-5.46-9.4-5.46-7,0-11.9,5.37-11.9,12.13,0,6.3,4.44,12.14,11.9,12.14a10.2,10.2,0,0,0,9.4-5.37v4.72h3.15Z" transform="translate(-1.25)"/><path class="cls-2" d="M480.46,29.18a12.8,12.8,0,0,1-10.75,5.93c-7.36,0-12.92-5.79-12.92-13.29a12.87,12.87,0,0,1,12.92-13.2,12.58,12.58,0,0,1,10.75,6.11h3.8a16.3,16.3,0,0,0-31,7.13,16.21,16.21,0,0,0,16.49,16.36c6.95,0,12.46-4.17,14.5-9Z" transform="translate(-1.25)"/><path class="cls-2" d="M490.56,26.17a9.16,9.16,0,0,1,17.56-3.7,8.31,8.31,0,0,1,.74,3.66,8.72,8.72,0,0,1-.79,3.61,8.61,8.61,0,0,1-8.29,5.6c-6.35,0-9.17-5-9.22-9.17Zm21.31-11.49h-3.15V19.5c-1.11-2.59-4.5-5.46-9.41-5.46-7,0-11.9,5.37-11.9,12.13,0,6.3,4.45,12.14,11.9,12.14a10.23,10.23,0,0,0,9.41-5.37v4.72h3.15Z" transform="translate(-1.25)"/><path class="cls-2" d="M518,37.66h3.1V25.15c0-5.18,2.46-8,6.9-8h.28V14.08c-2.68.09-5.7,1-7.32,4.4V14.73h-3V37.66Z" transform="translate(-1.25)"/><path class="cls-2" d="M531.6,24.55a9,9,0,0,1,17.79,0Zm20.89,2.55a12,12,0,0,0-3.56-9.78,12.14,12.14,0,0,0-8.43-3.24,12,12,0,0,0-12.09,12.19,12.14,12.14,0,0,0,18.66,10.19,12.24,12.24,0,0,0,4.64-5.61h-3.29a8.51,8.51,0,0,1-7.88,4.73,8.77,8.77,0,0,1-9-8.48Z" transform="translate(-1.25)"/><polygon class="cls-1" points="310.23 37.66 310.23 23.25 325.47 23.25 325.47 37.66 328.99 37.66 328.99 6.07 325.47 6.07 325.47 20.1 310.23 20.1 310.23 6.07 306.7 6.07 306.7 37.66 310.23 37.66"/><path class="cls-1" d="M337.92,24.55a9,9,0,0,1,17.79,0Zm20.9,2.55a12,12,0,0,0-3.57-9.78,12.14,12.14,0,0,0-8.43-3.24,12,12,0,0,0-12.09,12.19A12.15,12.15,0,0,0,353.4,36.46,12.28,12.28,0,0,0,358,30.85h-3.29a8.49,8.49,0,0,1-7.88,4.73,8.77,8.77,0,0,1-9-8.48Z" transform="translate(-1.25)"/><path class="cls-1" d="M365,26.17A9,9,0,0,1,374.1,17a8.9,8.9,0,0,1,8.43,5.52,8.17,8.17,0,0,1,.74,3.66,8.71,8.71,0,0,1-.78,3.61,8.61,8.61,0,0,1-8.29,5.6c-6.3,0-9.18-5-9.22-9.17Zm21.35-11.49h-3.15V19.5c-1.11-2.59-4.49-5.42-9.4-5.42-7,0-11.91,5.38-11.91,12.14,0,6.3,4.45,12.14,11.91,12.14a10.19,10.19,0,0,0,9.4-5.38v4.73h3.15v-23Z" transform="translate(-1.25)"/><rect class="cls-1" x="391.24" y="6.07" width="3.15" height="31.59"/><polygon class="cls-1" points="402.32 37.66 405.42 37.66 405.42 17.23 410.47 17.23 410.47 14.68 405.42 14.68 405.42 6.07 402.32 6.07 402.32 14.68 397.78 14.68 397.78 17.23 402.32 17.23 402.32 37.66"/><path class="cls-1" d="M415.15,37.66h3.15V24.6a7.69,7.69,0,0,1,1.85-5.33,7.25,7.25,0,0,1,5.6-2.27c2.74,0,4.54.83,5.75,2.36a9.73,9.73,0,0,1,1.66,6.07V37.66h3.11V25.29c0-3.29-.6-6.07-2.18-8.06s-4-3.15-7.6-3.15c-3.24-.09-6.81,1.35-8.19,4.4V6.07h-3.15V37.66Z" transform="translate(-1.25)"/><path class="cls-3" d="M171.39,63.65c0-4.4,3-6.95,6.4-6.95a5.6,5.6,0,0,1,3.89,1.57l-1.16,1.49a3.84,3.84,0,0,0-2.64-1.16c-2.41,0-4.17,2.08-4.17,5.09s1.67,5,4.08,5a4.76,4.76,0,0,0,3.1-1.34l1,1.48a6.36,6.36,0,0,1-4.26,1.67C174.08,70.6,171.39,68.05,171.39,63.65Z" transform="translate(-1.25)"/><path class="cls-3" d="M183.72,66.84c0-2.87,2.5-4.3,8.15-5,0-1.72-.56-3.34-2.74-3.34A7.19,7.19,0,0,0,185.2,60l-.88-1.53a9.65,9.65,0,0,1,5.19-1.71c3.24,0,4.58,2.13,4.58,5.46v8.11h-1.85l-.19-1.58H192a6.88,6.88,0,0,1-4.4,1.9A3.65,3.65,0,0,1,183.72,66.84Zm8.15.19V63.37c-4.45.56-5.93,1.62-5.93,3.34a2,2,0,0,0,2.31,2.13A5.73,5.73,0,0,0,191.87,67Z" transform="translate(-1.25)"/><path class="cls-3" d="M198.26,57h1.85l.19,2.41h.09c.93-1.67,2.27-2.73,3.75-2.73a3.24,3.24,0,0,1,1.44.28l-.42,1.94a3.75,3.75,0,0,0-1.29-.23c-1.12,0-2.46.79-3.34,3.06v8.52h-2.22V57Z" transform="translate(-1.25)"/><path class="cls-3" d="M207.34,52.85a1.43,1.43,0,0,1,1.53-1.43,1.41,1.41,0,0,1,1.53,1.43,1.47,1.47,0,0,1-1.53,1.44A1.44,1.44,0,0,1,207.34,52.85Zm.42,4.17H210V70.27h-2.22Z" transform="translate(-1.25)"/><path class="cls-3" d="M214.43,57h1.85l.19,1.9h.09A6.28,6.28,0,0,1,221,56.7c2.77,0,4,1.81,4,5.19v8.38h-2.23v-8.1c0-2.46-.74-3.52-2.5-3.52-1.34,0-2.27.69-3.61,2v9.59h-2.23V57Z" transform="translate(-1.25)"/><path class="cls-3" d="M228.37,72.82a3.81,3.81,0,0,1,1.95-3v-.09a2.41,2.41,0,0,1-1.21-2.18,3.22,3.22,0,0,1,1.44-2.46V65a4.64,4.64,0,0,1-1.72-3.57,4.69,4.69,0,0,1,5-4.72,5.21,5.21,0,0,1,1.85.32h4.64v1.72h-2.74a3.67,3.67,0,0,1,1.07,2.73c0,2.83-2.13,4.59-4.87,4.59a4.28,4.28,0,0,1-2-.47,2,2,0,0,0-.83,1.58c0,.83.55,1.43,2.31,1.43h2.6c3.06,0,4.63,1,4.63,3.15,0,2.46-2.59,4.59-6.72,4.59C230.59,76.39,228.37,75.09,228.37,72.82Zm10-.69c0-1.21-.93-1.63-2.69-1.63h-2.27a7.6,7.6,0,0,1-1.71-.18,2.79,2.79,0,0,0-1.34,2.22c0,1.44,1.43,2.32,3.84,2.32S238.33,73.51,238.33,72.13Zm-1.71-10.71a2.84,2.84,0,1,0-5.66,0,2.85,2.85,0,1,0,5.66,0Z" transform="translate(-1.25)"/><path class="cls-3" d="M242.64,68.93a1.62,1.62,0,1,1,3.24,0,1.62,1.62,0,1,1-3.24,0Z" transform="translate(-1.25)"/><path class="cls-3" d="M255.33,50.86h2.22v5.33l-.09,2.73a6.33,6.33,0,0,1,4.4-2.17c2.78,0,4,1.8,4,5.18v8.39h-2.22V62.21c0-2.45-.74-3.52-2.5-3.52-1.35,0-2.27.7-3.62,2v9.59h-2.22Z" transform="translate(-1.25)"/><path class="cls-3" d="M269.18,63.65c0-4.31,2.92-6.95,6-6.95,3.38,0,5.28,2.41,5.28,6.21a12.05,12.05,0,0,1-.09,1.29h-9c.14,2.83,1.9,4.64,4.41,4.64a5.76,5.76,0,0,0,3.28-1.07l.79,1.48a8,8,0,0,1-4.35,1.39C272,70.6,269.18,68,269.18,63.65Zm9.27-1.07c0-2.64-1.21-4.07-3.29-4.07-1.86,0-3.52,1.48-3.8,4.07Z" transform="translate(-1.25)"/><path class="cls-3" d="M282.48,66.84c0-2.87,2.5-4.3,8.15-5,0-1.72-.56-3.34-2.73-3.34A7.19,7.19,0,0,0,284,60l-.88-1.53a9.68,9.68,0,0,1,5.19-1.71c3.24,0,4.58,2.13,4.58,5.46v8.11H291l-.19-1.58h-.09a6.88,6.88,0,0,1-4.4,1.9A3.65,3.65,0,0,1,282.48,66.84Zm8.15.19V63.37c-4.45.56-5.93,1.62-5.93,3.34A2,2,0,0,0,287,68.84,5.73,5.73,0,0,0,290.63,67Z" transform="translate(-1.25)"/><path class="cls-3" d="M303.55,52.85a1.44,1.44,0,0,1,1.53-1.43,1.41,1.41,0,0,1,1.53,1.43,1.53,1.53,0,0,1-3.06,0ZM304,57h2.22V70.27H304Z" transform="translate(-1.25)"/><path class="cls-3" d="M310.69,57h1.85l.18,1.9h.1a6.28,6.28,0,0,1,4.44-2.22c2.78,0,4,1.81,4,5.19v8.38h-2.22v-8.1c0-2.46-.74-3.52-2.5-3.52-1.34,0-2.27.69-3.61,2v9.59h-2.23V57Z" transform="translate(-1.25)"/><path class="cls-3" d="M324.58,72.82a3.81,3.81,0,0,1,1.95-3v-.09a2.41,2.41,0,0,1-1.21-2.18,3.22,3.22,0,0,1,1.44-2.46V65a4.63,4.63,0,0,1-1.71-3.57A4.68,4.68,0,0,1,330,56.7a5.32,5.32,0,0,1,1.86.32h4.63v1.72h-2.73a3.71,3.71,0,0,1,1.06,2.73A4.53,4.53,0,0,1,330,66.06a4.25,4.25,0,0,1-2-.47,2,2,0,0,0-.84,1.58c0,.83.56,1.43,2.32,1.43H332c3.06,0,4.63,1,4.63,3.15,0,2.46-2.59,4.59-6.71,4.59C326.81,76.39,324.58,75.09,324.58,72.82Zm10-.69c0-1.21-.93-1.63-2.69-1.63h-2.27a7.6,7.6,0,0,1-1.71-.18,2.79,2.79,0,0,0-1.34,2.22c0,1.44,1.43,2.32,3.84,2.32S334.59,73.51,334.59,72.13Zm-1.71-10.71a2.84,2.84,0,1,0-5.66,0,2.85,2.85,0,1,0,5.66,0Z" transform="translate(-1.25)"/><path class="cls-3" d="M338.85,68.93a1.62,1.62,0,1,1,3.24,0,1.66,1.66,0,0,1-1.62,1.71A1.69,1.69,0,0,1,338.85,68.93Z" transform="translate(-1.25)"/><path class="cls-3" d="M357.52,63.65c0-4.31,2.92-6.95,6-6.95,3.38,0,5.28,2.41,5.28,6.21a9.81,9.81,0,0,1-.1,1.29h-8.94c.14,2.83,1.9,4.64,4.4,4.64a5.79,5.79,0,0,0,3.29-1.07l.79,1.48a8,8,0,0,1-4.35,1.39C360.35,70.6,357.52,68,357.52,63.65Zm9.26-1.07c0-2.64-1.2-4.07-3.28-4.07-1.86,0-3.53,1.48-3.8,4.07Z" transform="translate(-1.25)"/><path class="cls-3" d="M370.81,66.84c0-2.87,2.51-4.3,8.16-5,0-1.72-.56-3.34-2.74-3.34A7.19,7.19,0,0,0,372.3,60l-.88-1.53a9.65,9.65,0,0,1,5.18-1.71c3.25,0,4.59,2.13,4.59,5.46v8.11h-1.85l-.19-1.58h-.09a6.88,6.88,0,0,1-4.4,1.9A3.66,3.66,0,0,1,370.81,66.84ZM379,67V63.37c-4.45.56-5.93,1.62-5.93,3.34a2,2,0,0,0,2.31,2.13A5.64,5.64,0,0,0,379,67Z" transform="translate(-1.25)"/><path class="cls-3" d="M384.43,63.65c0-4.31,2.74-6.95,5.75-6.95a5.53,5.53,0,0,1,3.7,1.53L393.79,56v-5.1H396V70.27h-1.85L394,68.7h-.1a5.91,5.91,0,0,1-4,1.9C386.61,70.6,384.43,68.09,384.43,63.65Zm9.36,3.24v-7a4.57,4.57,0,0,0-3.24-1.39c-2.13,0-3.8,2-3.8,5.05,0,3.2,1.3,5.05,3.61,5.05A4.26,4.26,0,0,0,393.79,66.89Z" transform="translate(-1.25)"/><path class="cls-3" d="M400.09,52.85a1.44,1.44,0,0,1,1.53-1.43,1.41,1.41,0,0,1,1.53,1.43,1.53,1.53,0,0,1-3.06,0Zm.42,4.17h2.22V70.27h-2.22Z" transform="translate(-1.25)"/><path class="cls-3" d="M407.22,57h1.86l.18,1.9h.09a6.32,6.32,0,0,1,4.45-2.22c2.78,0,4,1.81,4,5.19v8.38h-2.22v-8.1c0-2.46-.74-3.52-2.5-3.52-1.35,0-2.27.69-3.62,2v9.59h-2.22V57Z" transform="translate(-1.25)"/><path class="cls-3" d="M421.12,72.82a3.81,3.81,0,0,1,1.95-3v-.09a2.41,2.41,0,0,1-1.21-2.18,3.22,3.22,0,0,1,1.44-2.46V65a4.64,4.64,0,0,1-1.72-3.57,4.69,4.69,0,0,1,5-4.72,5.21,5.21,0,0,1,1.85.32H433v1.72h-2.74a3.67,3.67,0,0,1,1.07,2.73c0,2.83-2.13,4.59-4.87,4.59a4.28,4.28,0,0,1-2-.47,2,2,0,0,0-.83,1.58c0,.83.55,1.43,2.31,1.43h2.6c3.06,0,4.63,1,4.63,3.15,0,2.46-2.59,4.59-6.72,4.59C423.34,76.39,421.12,75.09,421.12,72.82Zm10-.69c0-1.21-.93-1.63-2.69-1.63h-2.27a7.6,7.6,0,0,1-1.71-.18,2.8,2.8,0,0,0-1.35,2.22c0,1.44,1.44,2.32,3.85,2.32S431.13,73.51,431.13,72.13Zm-1.72-10.71a2.84,2.84,0,1,0-5.65,0,2.84,2.84,0,1,0,5.65,0Z" transform="translate(-1.25)"/><path class="cls-3" d="M435.39,68.93a1.62,1.62,0,1,1,3.24,0A1.66,1.66,0,0,1,437,70.64,1.69,1.69,0,0,1,435.39,68.93Z" transform="translate(-1.25)"/><rect class="cls-3" x="295.77" y="50.86" width="2.22" height="19.59"/><rect class="cls-3" x="350.3" y="50.86" width="2.22" height="19.59"/><path class="cls-2" d="M147.63,80a1.36,1.36,0,0,1-1.39-1.39V1.39a1.39,1.39,0,0,1,2.78,0V78.61A1.36,1.36,0,0,1,147.63,80Z" transform="translate(-1.25)"/></svg>